<svg width="41" height="40" viewBox="0 0 41 40" fill="none" xmlns="http://www.w3.org/2000/svg">
<circle cx="20.502" cy="19.834" r="19.834" fill="#55ACEE"/>
<path d="M16.137 28.9885C24.6403 28.9885 29.2919 21.9428 29.2919 15.8435C29.2919 15.6463 29.2919 15.4463 29.2835 15.2492C30.1891 14.5936 30.9707 13.7819 31.5917 12.8523C30.7457 13.2252 29.8493 13.4711 28.9314 13.5818C29.8982 13.0038 30.6224 12.0945 30.9692 11.0229C30.0608 11.561 29.0666 11.9388 28.0301 12.1397C27.3332 11.3975 26.4111 10.9059 25.4066 10.7409C24.402 10.5759 23.3711 10.7467 22.4734 11.227C21.5758 11.7072 20.8616 12.4701 20.4414 13.3974C20.0212 14.3246 19.9186 15.3646 20.1493 16.3561C18.3111 16.2639 16.5128 15.7864 14.871 14.9545C13.2293 14.1226 11.7807 12.9548 10.6193 11.527C10.0297 12.5454 9.84979 13.7499 10.1161 14.8961C10.3823 16.0422 11.0748 17.0441 12.053 17.6982C11.32 17.6733 10.6032 17.4765 9.96024 17.1236V17.187C9.9615 18.2538 10.3311 19.2874 11.0064 20.1131C11.6818 20.9388 12.6216 21.5061 13.6669 21.7189C13.2701 21.8282 12.8602 21.8827 12.4487 21.8808C12.1586 21.8817 11.869 21.8548 11.584 21.8006C11.8794 22.7189 12.4547 23.5217 13.2292 24.0968C14.0038 24.6718 14.9388 24.9902 15.9032 25.0073C14.2648 26.2942 12.2408 26.9921 10.1574 26.9887C9.79029 26.9903 9.42343 26.9691 9.05893 26.9254C11.1735 28.2735 13.6293 28.9893 16.137 28.9885Z" fill="white"/>
</svg>
