<svg width="40" height="40" viewBox="0 0 40 40" fill="none" xmlns="http://www.w3.org/2000/svg">
<circle cx="20.17" cy="19.834" r="19.834" fill="#0A66C2"/>
<path d="M13.2822 15.088C14.4995 15.088 15.4863 14.1012 15.4863 12.8839C15.4863 11.6665 14.4995 10.6797 13.2822 10.6797C12.0648 10.6797 11.078 11.6665 11.078 12.8839C11.078 14.1012 12.0648 15.088 13.2822 15.088Z" fill="white"/>
<path d="M17.5677 16.7588V28.9875H21.3645V22.9401C21.3645 21.3444 21.6647 19.7991 23.6433 19.7991C25.5946 19.7991 25.6187 21.6234 25.6187 23.0408V28.9885H29.4176V22.2823C29.4176 18.9881 28.7084 16.4565 24.8582 16.4565C23.0096 16.4565 21.7705 17.471 21.2638 18.431H21.2124V16.7588H17.5677ZM11.3803 16.7588H15.1832V28.9875H11.3803V16.7588Z" fill="white"/>
</svg>
